# xmcd
#
# Track frame offsets:
# 188
# 16090
# 26395
# 46648
# 57215
# 71280
# 92940
# 115403
# 129870
# 146585
# 151368
# 176500
# 187715
# 208145
#
# Disc length: 2995 seconds
#
#
# Revision: 2
# Processed by: cddbd v1.5.2PL0 Copyright (c) Steve Scherf et al.
# Submitted via: FreeRIP 2.945 
#
DISCID=ad0bb10e
DTITLE=Louis Armstrong and Ella Fitzgerald - 28 Great Jazz Performances [CD1)
DYEAR=1995
DGENRE=Jazz
TTITLE0=A Fine Romance
TTITLE1=What a Wonderful World
TTITLE2=A Foggy Day
TTITLE3=I Can´t You Anything But Love
TTITLE4=I`ve Got My Love To Keep Me Warm
TTITLE5=St. James Infirmary
TTITLE6=Don´t Be That Way
TTITLE7=How High The Moon
TTITLE8=Moonlight In Vermont
TTITLE9=When You´re Smiling
TTITLE10=The Nearness Of You
TTITLE11=That Old Black Magic
TTITLE12=They Can´t Take That Away From Me
TTITLE13=On The Sunny Side Of The Street
EXTD=BXCL 283 A YEAR: 1995
EXTT0=
EXTT1=
EXTT2=
EXTT3=
EXTT4=
EXTT5=
EXTT6=
EXTT7=
EXTT8=
EXTT9=
EXTT10=
EXTT11=
EXTT12=
EXTT13=
PLAYORDER=
